<svg width="53" height="45" viewBox="0 0 53 45" fill="none" xmlns="http://www.w3.org/2000/svg">
<rect x="13.082" y="10.1035" width="36.0477" height="34.5208" rx="17.2604" fill="#B889F3" fill-opacity="0.47"/>
<path d="M39.1464 0L34.7211 4.44639C34.5033 4.41903 34.2718 4.39166 34.0539 4.37798C32.4609 3.73497 29.6423 3.28349 26.3336 5.84187L26.2519 5.91028L25.1626 7.00477C21.0778 4.21381 17.8235 5.93764 16.9112 6.53961L12.84 2.44893L0 15.3503L4.87457 20.2482C4.91542 22.4372 5.69154 24.6946 7.20293 26.9656C7.82928 27.896 8.55093 28.7579 9.34067 29.5651C10.3483 30.5912 11.3559 31.5899 12.3771 32.616C11.2742 34.2167 11.7507 35.5437 12.8945 36.7477C14.0791 37.9927 15.1684 38.1295 16.7751 37.6643C16.7751 37.6643 16.8023 37.6643 16.8159 37.678C17.9733 39.4155 19.0354 40.2501 20.1791 40.3458C20.6557 40.811 21.1322 41.2762 21.6088 41.7413C23.0249 43.1094 25.1898 43.4241 26.8919 42.4391C27.6271 42.015 27.7497 41.6592 28.1309 41.0573C31.0175 43.4925 32.951 43.5336 35.2249 40.1133C35.2249 40.1133 35.2522 40.0996 35.2658 40.0996C36.8725 40.5647 37.9618 40.4279 39.1464 39.1829C40.3582 37.9243 40.8075 36.5151 39.4595 34.7776C39.4595 34.7776 39.1055 34.3124 39.1191 34.3124C40.0859 34.3398 40.8484 33.7241 41.2569 33.1769C42.3734 31.7267 42.3053 30.1944 41.1071 28.6895C41.6381 28.1559 42.1692 27.636 42.6866 27.1024C43.4763 26.3089 44.198 25.447 44.8243 24.503C46.3357 22.2319 47.1118 19.9882 47.1527 17.7856L52.0272 12.8877L39.1464 0ZM10.1032 27.6771C8.63263 26.1037 7.5161 24.3799 7.03954 22.4098C6.93061 21.972 6.86253 21.5205 6.80807 21.0554C6.76722 20.6723 6.76722 20.2892 6.76722 19.9061L1.82456 14.9399L12.4451 4.26853L15.8492 7.68883L16.0807 7.90773V7.94877L17.7146 8.08559L17.8235 7.81196C18.4771 7.37416 21.1595 5.86923 24.7541 8.61915L29.5062 13.4213C29.7376 13.6675 29.8738 13.9822 29.8738 14.3242C29.8738 14.6662 29.7376 14.9946 29.5062 15.2272L29.193 15.5418C28.6892 16.0344 27.8858 16.0344 27.3957 15.5418L22.5347 10.6303L21.3501 11.4648L22.6709 13.0108L23.2427 13.5854C22.6845 14.1464 22.1262 14.7073 21.568 15.2682C21.4318 15.405 21.3501 15.5555 21.3092 15.7197C21.282 15.7471 21.2548 15.7744 21.2275 15.8018C17.9597 19.0853 14.6782 22.3688 11.4239 25.6659C10.7704 26.3226 10.3483 26.993 10.1304 27.6634L10.1032 27.6771ZM25.8706 40.9889C25.4894 41.3446 25.1081 41.5635 24.5499 41.5224C23.7738 41.4677 23.2291 40.8657 22.8615 40.4963C22.63 40.2638 22.3985 40.0312 22.1807 39.8123C22.7253 39.525 23.2836 39.1145 23.8963 38.5947C24.2776 39.1966 24.4001 39.5523 25.1354 39.9765C25.4622 40.168 25.8162 40.3048 26.1702 40.4006C26.1157 40.6468 26.0068 40.8521 25.8706 40.9889ZM32.883 40.3322C32.1477 41.1941 31.3171 41.2625 30.255 40.2774C30.0916 40.1269 29.9283 39.9628 29.7649 39.8123C29.9963 39.6618 30.2142 39.4839 30.4321 39.2787C31.0448 38.6904 31.6439 38.0884 32.2566 37.4865C32.3247 37.5549 32.3792 37.6233 32.4472 37.678C33.4548 38.6904 33.5774 39.4976 32.8966 40.3185L32.883 40.3322ZM37.9618 37.6643C37.2265 38.6767 36.0964 38.6904 35.0888 37.6917C34.585 37.1855 34.0948 36.6793 33.591 36.1868C34.4216 35.3796 35.2522 34.5724 36.0691 33.7515C36.5321 34.2167 36.995 34.6818 37.4716 35.1607C38.3703 36.0636 38.52 36.9255 37.9754 37.678L37.9618 37.6643ZM40.0178 31.6856C39.6366 32.6297 38.5336 33.0675 37.6486 32.5886C37.5669 32.5339 37.4852 32.4792 37.4035 32.4244C38.1932 31.6309 38.983 30.8374 39.7863 30.0302C40.1267 30.4817 40.3037 30.9879 40.0314 31.6856H40.0178ZM45.2328 17.4709C45.2328 17.8676 45.2328 18.2507 45.1919 18.6201C45.1511 19.0853 45.0694 19.5367 44.9605 19.9745C44.4703 21.9446 43.3538 23.6821 41.8696 25.2555C39.8544 27.3898 37.7439 29.4283 35.6743 31.5078C33.4957 33.6968 31.3307 35.8858 29.1521 38.0474C28.7709 38.4168 28.2399 39.0188 27.4637 39.0735C26.9055 39.1145 26.5106 38.8956 26.143 38.5399C25.8026 38.2253 25.6936 37.4044 25.8298 36.8982C25.966 36.3509 26.4561 35.8584 26.8782 35.4206C27.8722 34.3945 28.8798 33.3958 29.8738 32.3971C30.364 31.9045 30.8405 31.412 31.3307 30.9195C31.8345 30.3859 33.3323 29.2641 32.5017 28.4842C31.7392 27.7591 30.6363 29.1546 30.1733 29.6198C29.6832 30.1123 29.193 30.6048 28.7028 31.0837C26.4017 33.3411 24.1414 35.6258 21.7858 37.8285C20.7238 38.8272 19.8795 38.7451 19.1579 37.8832C18.4635 37.0624 18.5996 36.2552 19.6072 35.2428C22.2079 32.616 24.8222 30.0029 27.4229 27.3761C27.7905 27.0067 28.1037 26.7741 28.1718 26.1995C28.2262 25.7891 28.0765 25.4197 27.6407 25.3513C26.9191 25.2418 26.6059 25.5154 26.1566 25.9806C23.093 29.0589 20.0293 32.1508 16.9521 35.2291C15.9445 36.2415 14.8144 36.2141 14.0791 35.2017C13.5208 34.4492 13.6842 33.5873 14.5829 32.6844C17.701 29.5377 20.8191 26.4047 23.9372 23.2854C24.441 22.7792 24.8494 22.2046 24.2231 21.6163C23.624 21.0554 23.1066 21.5479 22.6572 22.013C20.2608 24.4346 17.8507 26.8425 15.4407 29.2504C15.1139 29.5651 14.7871 29.8934 14.3922 30.1123C13.5072 30.6048 12.3907 30.1534 12.023 29.2094C11.6418 28.2517 12.132 27.636 12.7447 27.0204C16.7342 23.0255 20.7238 19.0305 24.6724 15.0083L26.3064 16.65C26.8646 17.2109 27.5999 17.4982 28.3216 17.4982C29.0432 17.4982 29.7785 17.2246 30.3367 16.6637L30.6499 16.349C31.1946 15.8155 31.4805 15.0904 31.4941 14.3242C31.4941 13.5991 31.2218 12.9287 30.7588 12.4088L27.1369 8.7286L26.4289 8.01718L27.3957 7.04582C28.8934 5.8966 30.2278 5.49984 31.3307 5.44512C33.3459 5.26726 35.1296 6.32071 35.1296 6.32071L36.2053 5.2399L39.6093 1.8196L50.2299 12.4909L45.2872 17.4572L45.2328 17.4709Z" fill="#200E32"/>
</svg>
