<svg width="51" height="41" viewBox="0 0 51 41" fill="none" xmlns="http://www.w3.org/2000/svg">
<rect x="14.5605" y="6.10352" width="36.0477" height="34.5208" rx="17.2604" fill="#B889F3" fill-opacity="0.47"/>
<g clip-path="url(#clip0_236_3491)">
<path d="M0.221966 26.2686C0.369944 26.4172 0.562315 26.5064 0.769484 26.5064H13.2884C13.1404 27.339 13.0368 28.2309 13.022 29.2121C13.022 29.4202 13.096 29.6283 13.244 29.777C13.392 29.9257 13.5843 30.0149 13.8063 30.0149H31.0457C31.46 30.0149 31.8152 29.6729 31.83 29.2567C31.83 29.1526 31.8596 28.0377 31.6376 26.5213H44.2305C44.6449 26.5213 45 26.1794 45.0148 25.7631C45.0148 25.4955 45.1776 19.1477 41.2266 15.5055C40.9454 15.2527 40.5311 15.223 40.2203 15.4609C40.1759 15.4906 35.5738 18.9693 31.2825 15.4609C30.9865 15.223 30.5722 15.223 30.2762 15.4757C30.1874 15.5501 28.9296 16.6799 27.8346 18.8503C27.583 18.7463 27.2871 18.776 27.0503 18.9395C26.8579 19.0882 22.3742 22.4331 18.1125 18.9395C17.9053 18.7612 17.6241 18.7314 17.3874 18.8057C16.8399 17.6165 16.0704 16.4569 15.0197 15.4906C14.7386 15.2379 14.3242 15.2081 14.0135 15.446C13.9691 15.4757 9.36698 18.9544 5.07563 15.446C4.77968 15.2081 4.36534 15.2081 4.06939 15.4609C3.90661 15.6095 0.0887866 19.0139 0 25.7037C0 25.9118 0.0739888 26.1199 0.221966 26.2686ZM30.8533 17.0961C34.9227 19.9504 39.0809 17.9732 40.5755 17.0664C42.8839 19.5639 43.3427 23.3399 43.4166 24.9455H31.3121C30.9125 23.3548 30.217 21.556 29.0036 20.0248C29.6547 18.6125 30.3946 17.6165 30.8533 17.0961ZM17.6833 20.5897C21.7527 23.444 25.9109 21.4668 27.4055 20.56C29.7287 23.0575 30.1726 26.8335 30.2466 28.439H14.6054C14.8865 24.2319 16.7955 21.6006 17.6833 20.6046V20.5897ZM4.6465 17.0961C8.71588 19.9504 12.8741 17.9732 14.3686 17.0664C15.1677 17.9286 15.7448 18.9395 16.1592 19.9653C15.3897 20.9316 14.3094 22.5818 13.6287 24.9306H1.58336C1.86452 20.7235 3.77343 18.0773 4.6613 17.0813L4.6465 17.0961Z" fill="#200E32"/>
<path d="M9.39648 14.8067C11.3646 14.8067 13.2143 14.0337 14.6053 12.6363C14.7977 12.443 14.9752 12.2349 15.1528 12.0268C15.7003 15.5798 18.7487 18.3003 22.4333 18.3003C24.4014 18.3003 26.2511 17.5273 27.6421 16.1298C28.8111 14.9554 29.5214 13.4688 29.7286 11.8632C31.0752 13.6472 33.2061 14.8067 35.6033 14.8067C37.5714 14.8067 39.4211 14.0337 40.8121 12.6363C42.2031 11.2388 42.9726 9.38057 42.9726 7.40337C42.9726 3.31516 39.6579 0 35.6033 0C33.6352 0 31.7855 0.773043 30.3945 2.17047C29.2255 3.3449 28.5152 4.83152 28.308 6.43707C26.9614 4.65312 24.8305 3.49356 22.4333 3.49356C20.4652 3.49356 18.6155 4.2666 17.2245 5.66402C17.0321 5.85728 16.8546 6.06541 16.6918 6.27354C16.1443 2.72051 13.0959 0 9.41128 0C7.44318 0 5.59346 0.773043 4.20247 2.17047C2.81148 3.56789 2.04199 5.42616 2.04199 7.40337C2.04199 11.4916 5.35669 14.8067 9.41128 14.8067H9.39648ZM31.4895 3.27056C32.5846 2.17047 34.0496 1.56095 35.6033 1.56095C38.8144 1.56095 41.4188 4.1774 41.4188 7.40337C41.4188 8.96432 40.8121 10.4212 39.7171 11.5362C38.6221 12.6363 37.1571 13.2458 35.6033 13.2458C32.3922 13.2458 29.7878 10.6293 29.7878 7.40337C29.7878 5.84242 30.3945 4.38553 31.4895 3.27056ZM18.3195 6.76412C19.4146 5.66402 20.8795 5.05451 22.4333 5.05451C25.6444 5.05451 28.2488 7.67096 28.2488 10.8969C28.2488 12.4579 27.6421 13.9148 26.5471 15.0297C25.4521 16.1298 23.9871 16.7393 22.4333 16.7393C19.2222 16.7393 16.6178 14.1229 16.6178 10.8969C16.6178 9.33598 17.2245 7.87909 18.3195 6.76412ZM5.2827 3.28543C6.37774 2.18533 7.84272 1.57582 9.39648 1.57582C12.6076 1.57582 15.212 4.19227 15.212 7.41823C15.212 8.97919 14.6053 10.4361 13.5103 11.551C12.4152 12.6511 10.9502 13.2607 9.39648 13.2607C6.18537 13.2607 3.58096 10.6442 3.58096 7.41823C3.58096 5.85728 4.18767 4.4004 5.2827 3.28543Z" fill="#200E32"/>
</g>
<defs>
<clipPath id="clip0_236_3491">
<rect width="45" height="30" fill="white"/>
</clipPath>
</defs>
</svg>
