<svg width="44" height="43" viewBox="0 0 44 43" fill="none" xmlns="http://www.w3.org/2000/svg">
<rect x="7.3252" y="8.10352" width="36.0477" height="34.5208" rx="17.2604" fill="#B889F3" fill-opacity="0.47"/>
<path d="M6.04165 31.8679C6.13384 32.5306 6.67379 33 7.29277 33C7.34545 33 7.39812 33 7.46397 33C14.9312 31.9784 20.5019 29.8384 24.5055 26.4835C26.481 24.8268 28.0877 22.8802 29.431 20.5469C30.5109 18.6555 31.4064 16.5294 32.1571 14.0443L34.5408 14.4032C35.0149 14.4723 35.4758 14.2652 35.7524 13.8648C36.029 13.4644 36.0816 12.9398 35.8709 12.498L31.8542 3.75877C31.683 3.38601 31.3537 3.10988 30.9586 3.02705C30.5767 2.94421 30.1685 3.05466 29.8656 3.31698L22.8198 9.68157C22.451 10.0129 22.293 10.5375 22.4115 11.0208C22.5301 11.5178 22.8988 11.8905 23.3861 11.9872L25.4932 12.4566C24.9006 15.6044 23.7022 18.4484 21.9111 20.9335C19.0533 24.882 15.1551 27.2291 12.3894 28.513C10.8091 29.2448 9.42625 29.7004 8.54389 29.9627C8.05661 30.1145 7.66152 30.2112 7.42446 30.2664C7.29277 30.294 7.20058 30.3216 7.13473 30.3354H7.06888C6.35772 30.4873 5.90995 31.15 6.01531 31.8679H6.04165ZM10.8486 30.8324C11.5071 30.5839 12.2446 30.294 13.0216 29.9351C15.9452 28.5821 20.0805 26.0832 23.1227 21.8723C25.2035 19.0007 26.5468 15.6734 27.1131 11.9734C27.1789 11.5592 26.9156 11.1726 26.5336 11.0898L24.1368 10.5514L30.6557 4.66997L34.3827 12.7741L31.762 12.3876C31.762 12.3876 31.6961 12.3876 31.6566 12.3876C31.3274 12.3876 31.0377 12.6085 30.9455 12.9398C30.1948 15.5768 29.2993 17.7995 28.1798 19.7324C26.9287 21.9137 25.4274 23.7223 23.5968 25.2548C20.4624 27.878 16.2745 29.7142 10.8617 30.8324H10.8486Z" fill="#200E32"/>
<path d="M40 36.9433C40 36.3608 39.5355 35.8866 38.9648 35.8866H2.07034V1.05668C2.07034 0.474153 1.60584 0 1.03517 0C0.464499 0 0 0.474153 0 1.05668V36.9433C0 37.2278 0.106171 37.4988 0.305242 37.6884C0.504313 37.8916 0.769741 38 1.03517 38H38.9516C39.5222 38 39.9867 37.5258 39.9867 36.9433H40Z" fill="#200E32"/>
</svg>
