<svg width="37" height="36" viewBox="0 0 37 36" fill="none" xmlns="http://www.w3.org/2000/svg">
<rect x="4" y="3" width="32.4559" height="32.4559" rx="16.228" fill="#B889F3" fill-opacity="0.47"/>
<path d="M16.9496 0.00524326C20.6907 0.00524326 24.4318 -0.00932135 28.1745 0.0100981C31.7947 0.0295176 33.98 2.29189 33.9895 6.03014C34.0036 11.5048 34.0067 16.9795 33.9785 22.4542C33.9738 23.3086 33.8953 24.1938 33.6661 25.0078C33.0224 27.2945 31.071 28.8869 28.7193 28.9241C23.8274 29.0034 18.9355 28.9888 14.0421 28.9937C11.1127 28.9969 8.18007 29.0244 5.25217 28.9322C2.67594 28.8529 0.691572 27.0663 0.131113 24.4981C0.0573268 24.1598 0.016509 23.8038 0.016509 23.4575C0.00865942 17.4439 -0.0180291 11.4288 0.0196488 5.41519C0.035348 2.70131 1.75126 0.647705 4.32122 0.110432C4.75137 0.0198079 5.20351 0.0100981 5.64622 0.0100981C9.41402 0.00200668 13.1818 0.00524326 16.9496 0.00686155V0.00524326ZM16.9465 2.53463V2.53787C12.8694 2.53787 8.79233 2.52978 4.71369 2.55405C4.39186 2.55567 4.07003 2.79841 3.7482 2.92949C3.88792 3.24344 3.95543 3.63021 4.17678 3.86325C7.93516 7.83615 11.7077 11.7945 15.488 15.7464C16.6199 16.9293 17.3452 16.9212 18.4677 15.748C20.6515 13.4646 22.8227 11.1714 25.0048 8.88642C26.6187 7.19693 28.2467 5.522 29.848 3.82117C30.0443 3.61403 30.2907 3.12207 30.2232 3.04925C29.9987 2.8065 29.6455 2.68675 29.3315 2.5411C29.2452 2.50065 29.1259 2.53463 29.0207 2.53463C24.9954 2.53463 20.9702 2.53463 16.9449 2.53463H16.9465ZM4.13597 26.4481H29.6549C26.5277 23.2924 23.4648 20.2031 20.3579 17.0685C19.4787 17.8663 18.6498 19.2241 16.9606 19.2322C15.2447 19.2402 14.4377 17.7951 13.568 17.0458C10.425 20.1789 7.36999 23.2245 4.13597 26.4481ZM2.621 24.1291C5.61796 21.1191 8.63691 18.0848 11.7124 14.9938C8.65575 11.9175 5.63994 8.88157 2.621 5.8408V24.1291ZM31.33 24.1501V5.85536C28.3268 8.91393 25.3267 11.9693 22.3297 15.0197C25.3408 18.0735 28.3425 21.1191 31.33 24.1485V24.1501Z" fill="#200E32"/>
</svg>
