<svg width="38" height="37" viewBox="0 0 38 37" fill="none" xmlns="http://www.w3.org/2000/svg">
<rect x="5.49854" y="3.98987" width="32.4559" height="32.4559" rx="16.228" fill="#B889F3" fill-opacity="0.47"/>
<path d="M32.9992 15.9999C32.9058 25.0611 25.5499 32.0443 16.1822 31.9671C7.351 31.8957 -0.108812 24.5409 0.00120152 16.0159C0.11875 7.03925 7.50924 -0.0386435 16.6901 0.0327621C25.666 0.10271 33.0881 7.37005 32.9992 15.9985V15.9999ZM16.5695 1.9272C8.56266 1.89805 2.0794 8.18465 2.02816 16.0305C1.97843 23.7161 8.52046 30.0537 16.5409 30.0858C24.3805 30.1178 30.9557 23.8006 30.9903 16.201C31.0265 8.29103 24.6261 1.95488 16.568 1.92574L16.5695 1.9272Z" fill="#200E32"/>
<path d="M18.3659 27.7096H13.1197V16.0544H10.645V12.0629C11.2655 12.0629 11.8964 12.0448 12.5274 12.069C12.9801 12.0856 13.133 11.9026 13.1197 11.4456C13.0944 10.5136 13.1019 9.57999 13.1197 8.64794C13.1672 6.29662 14.6294 4.60954 16.9304 4.42041C18.6286 4.2812 20.3402 4.32357 22.0459 4.29028C22.1127 4.29028 22.181 4.34021 22.2834 4.38107V8.3771C21.5026 8.3771 20.7455 8.37104 19.9869 8.3771C18.7103 8.3892 18.357 8.74628 18.3406 10.043C18.3332 10.6709 18.3406 11.2973 18.3406 12.0281H22.3547C22.1825 13.402 22.0251 14.6654 21.8589 15.9939H18.3629V27.7066L18.3659 27.7096Z" fill="#200E32"/>
</svg>
