<svg width="39" height="39" viewBox="0 0 39 39" fill="none" xmlns="http://www.w3.org/2000/svg">
<rect x="6" y="6" width="32.4559" height="32.4559" rx="16.228" fill="#B889F3" fill-opacity="0.47"/>
<g clip-path="url(#clip0_224_525)">
<path d="M26.9218 28.4259C23.8366 31.8078 19.7584 33.3271 14.7909 32.9405C7.36568 32.3674 1.65672 27.0174 0.251517 19.3129C-1.29109 10.8621 4.46971 2.0086 12.582 0.367658C13.798 0.121652 14.9698 0 16.1028 0C19.5458 0 22.6362 1.13541 25.4648 3.43328L22.3225 6.6611C19.564 4.49029 15.9602 3.86852 12.5172 5.01204C8.63606 6.30155 5.7401 9.65913 4.77565 13.9926C3.74897 18.6127 5.6364 23.6031 9.47607 26.4119C13.2276 29.1558 18.3325 29.2775 22.1851 26.7174C24.4174 25.2305 25.794 23.0705 26.2789 20.2942L26.5278 18.8614H17.1036V14.4279H30.8497C30.8808 14.6333 30.9041 14.8361 30.9197 15.0334C31.3578 20.6186 30.0485 25.0007 26.9218 28.4259Z" fill="#200E32"/>
</g>
<defs>
<clipPath id="clip0_224_525">
<rect width="31" height="33" fill="white"/>
</clipPath>
</defs>
</svg>
