<svg width="117" height="120" viewBox="0 0 117 120" fill="none" xmlns="http://www.w3.org/2000/svg">
<g clip-path="url(#clip0_2204_2642)">
<path d="M64.1933 71.0052C63.1184 70.8412 62.2259 70.8194 61.3954 70.5708C58.7011 69.7838 56.3268 68.4162 54.3546 66.4032C51.5466 63.5235 49.3292 60.2314 47.8115 56.5284C46.8867 54.2721 46.1267 51.9638 46.3079 49.4557C46.5632 45.9562 48.6346 44.5801 51.961 45.7746C54.0102 46.5004 55.6277 47.8372 57.0396 49.4287C62.125 55.1419 64.4304 61.9014 64.468 69.4819C64.458 69.8736 64.3201 70.2556 64.18 71.0107L64.1933 71.0052ZM85.1662 56.441C88.4793 44.7433 86.6507 33.5873 81.2488 22.9038C78.4802 17.4348 74.0917 13.4977 68.3665 11.1782C68.3201 11.3677 68.2738 11.5573 68.2142 11.7522C68.4237 11.9609 68.6332 12.1695 68.8217 12.4023C69.0462 12.4963 69.2442 12.6012 69.4422 12.7061C73.5032 15.0876 76.4389 18.5815 78.4185 22.7307C81.7185 29.6096 83.7352 36.8751 83.7632 44.5835C83.7757 49.8335 83.0839 54.9536 80.663 59.7128C78.174 64.6085 74.4458 68.1827 69.3438 70.2584C68.9058 70.4379 68.4243 70.5112 67.6563 70.7175C67.5851 69.8631 67.5074 69.1818 67.4804 68.5108C67.2148 61.0547 64.9921 54.3078 60.2439 48.472C58.2521 46.0329 55.8787 44.1379 52.8704 43.0766C48.0827 41.3804 44.0678 43.8011 43.6366 48.8764C43.4989 50.545 43.6817 52.3148 44.1004 53.9414C45.5905 59.733 48.5815 64.7233 52.876 68.8849C55.6772 71.5968 58.8954 73.5486 62.8996 73.9382C63.2834 73.9669 63.6498 74.1423 63.9969 74.2326C63.7475 83.1554 54.5341 96.0777 47.5067 98.5239L45.767 91.2535L37.6715 103.764L52.1503 106.79L52.5746 106.88L48.163 100.844C58.7556 94.766 64.9701 85.9872 67.2373 74.0826C69.0797 73.3585 70.9664 72.8177 72.6554 71.9084C78.9502 68.5068 83.2138 63.3644 85.1717 56.4543L85.1662 56.441Z" fill="white"/>
</g>
<defs>
<clipPath id="clip0_2204_2642">
<rect width="82.5632" height="71.1742" fill="white" transform="translate(40.9082 111.661) rotate(-112.287)"/>
</clipPath>
</defs>
</svg>
