<svg width="46" height="51" viewBox="0 0 46 51" fill="none" xmlns="http://www.w3.org/2000/svg">
<rect x="5.26953" y="11.625" width="40.7251" height="39" rx="19" fill="#B889F3" fill-opacity="0.47"/>
<path d="M0.928499 22.8445C0.468319 22.8133 0.0694967 23.1409 0.00813933 23.5932C-0.053218 24.0455 0.238229 24.4822 0.68307 24.5758C3.88899 25.2777 6.78812 25.6052 9.41115 25.6052C21.8667 25.6052 28.3246 18.3526 32.911 10.6477L35.6874 12.3478C35.9789 12.5194 36.347 12.5194 36.6231 12.3166C36.8992 12.1294 37.0373 11.7863 36.9913 11.4432L35.2119 0.728083C35.1659 0.462935 35.0125 0.228981 34.7671 0.104205C34.5216 -0.0205704 34.2609 -0.0361673 34.0154 0.0730112L24.5818 4.14381C24.275 4.28418 24.0602 4.58053 24.0602 4.92366C24.0602 5.26679 24.2443 5.57873 24.5511 5.7347L27.3889 7.13842C19.7805 24.1391 1.69547 22.9069 0.928499 22.8445ZM29.2909 7.06044C29.475 6.62373 29.2909 6.14022 28.8768 5.92186L26.99 4.98605L33.678 2.10061L34.9665 9.83669L33.0644 8.66692C32.865 8.54215 32.6349 8.51095 32.4048 8.57334C32.1747 8.63573 31.9907 8.7761 31.8679 8.97886C27.2355 16.9801 21.1918 24.0767 8.8436 23.8271C15.5162 22.3922 24.6124 18.3214 29.2909 7.04484V7.06044Z" fill="#200E32"/>
<path d="M3.70532 34.0434C2.03334 34.0434 0.729492 35.6967 0.729492 37.8179V44.431C0.729492 46.5521 2.03334 48.2054 3.70532 48.2054H7.77025C9.44223 48.2054 10.7461 46.5521 10.7461 44.431V37.8179C10.7461 35.6967 9.44223 34.0434 7.77025 34.0434H3.70532ZM9.01273 37.8179V44.431C9.01273 45.5071 8.42984 46.443 7.77025 46.443H3.70532C3.04573 46.443 2.46284 45.5071 2.46284 44.431V37.8179C2.46284 36.7417 3.04573 35.8058 3.70532 35.8058H7.77025C8.42984 35.8058 9.01273 36.7417 9.01273 37.8179Z" fill="#200E32"/>
<path d="M15.9915 27.8514C14.3195 27.8514 13.0156 29.5047 13.0156 31.6259V44.431C13.0156 46.5522 14.3195 48.2054 15.9915 48.2054H20.0564C21.7284 48.2054 23.0322 46.5522 23.0322 44.431V31.6259C23.0322 29.5047 21.7284 27.8514 20.0564 27.8514H15.9915ZM21.2989 31.6259V44.431C21.2989 45.5072 20.716 46.443 20.0564 46.443H15.9915C15.3319 46.443 14.749 45.5072 14.749 44.431V31.6259C14.749 30.5497 15.3319 29.6139 15.9915 29.6139H20.0564C20.716 29.6139 21.2989 30.5497 21.2989 31.6259Z" fill="#200E32"/>
<path d="M33.571 20.4272H29.5061C27.8341 20.4272 26.5303 22.0805 26.5303 24.2017V44.4309C26.5303 46.5521 27.8341 48.2054 29.5061 48.2054H33.571C35.243 48.2054 36.5469 46.5521 36.5469 44.4309V24.2017C36.5469 22.0805 35.243 20.4272 33.571 20.4272ZM34.8135 44.4309C34.8135 45.5071 34.2306 46.4429 33.571 46.4429H29.5061C28.8465 46.4429 28.2636 45.5071 28.2636 44.4309V24.2017C28.2636 23.1255 28.8465 22.1897 29.5061 22.1897H33.571C34.2306 22.1897 34.8135 23.1255 34.8135 24.2017V44.4309Z" fill="#200E32"/>
</svg>
