<svg width="38" height="45" viewBox="0 0 38 45" fill="none" xmlns="http://www.w3.org/2000/svg">
<rect x="5.18994" y="12.1592" width="32.4559" height="32.4559" rx="16.228" fill="#DDC7F9"/>
<g clip-path="url(#clip0_2823_874)">
<path d="M22.9972 18.9886C22.9972 24.3202 23.0065 29.6528 22.9931 34.9843C22.9879 36.8778 21.8296 38 19.9498 38C14.2972 38 8.64562 38 2.99301 38C1.17201 38 0.00335851 36.8064 0.00438907 34.9843C0.0085113 26.9435 0.00438907 18.9027 0.00335851 10.8619C0.00335851 8.23854 -0.00282484 5.61625 0.00335851 2.99292C0.00748074 1.16155 1.18335 0 3.01877 0C8.67138 0 14.323 0 19.9756 0C21.8265 0 22.9941 1.17087 22.9951 3.04364C22.9982 8.35863 22.9961 13.6736 22.9972 18.9886ZM2.11497 30.6031H20.8526V7.39792H2.11497V30.6031ZM11.49 36.1314C12.4597 36.1376 13.2677 35.3508 13.2924 34.3745C13.3171 33.3921 12.5009 32.5494 11.5106 32.5359C10.5522 32.5225 9.73286 33.3269 9.7174 34.3C9.70091 35.3042 10.4955 36.1252 11.491 36.1314H11.49Z" fill="black"/>
</g>
<defs>
<clipPath id="clip0_2823_874">
<rect width="23" height="38" fill="white"/>
</clipPath>
</defs>
</svg>
