<svg width="38" height="39" viewBox="0 0 38 39" fill="none" xmlns="http://www.w3.org/2000/svg">
<rect x="5.49854" y="5.99023" width="32.4559" height="32.4559" rx="16.228" fill="#B889F3" fill-opacity="0.47"/>
<g clip-path="url(#clip0_2823_896)">
<path d="M12.3656 21.2625C12.2881 21.2951 11.7798 20.7624 11.7063 20.693C11.4981 20.4951 11.3001 20.2848 11.1144 20.0644C10.7653 19.6481 10.4612 19.1909 10.2264 18.699C9.75288 17.7092 9.58142 16.6091 9.66511 15.5192C9.80187 13.7191 10.7082 11.9945 12.1676 10.9026C14.4334 9.20455 17.538 9.19638 19.7854 10.8638C20.5305 11.4169 21.1694 12.1129 21.6103 12.9313C21.9103 13.4865 22.141 14.0865 22.2736 14.7029C22.5635 16.0417 22.3369 17.4765 21.7674 18.7133C21.3163 19.6971 20.6407 20.4991 19.767 21.138C19.7303 21.1645 19.6997 21.1951 19.6364 21.2502C19.8814 21.3543 20.1038 21.44 20.3223 21.5421C23.0595 22.8115 24.7578 24.9137 25.3967 27.869C25.5682 28.6629 25.5886 29.4609 25.5457 30.2671C25.5294 30.5937 25.5396 30.9223 25.5375 31.2509C25.5335 31.606 25.2293 31.9182 24.8803 31.9203C19.9099 31.9305 14.9376 31.9387 9.96721 31.9468C9.21401 31.9468 8.46284 31.9468 7.70964 31.9407C7.47286 31.9387 7.23404 31.9203 7.00338 31.8815C6.6972 31.8284 6.50941 31.6243 6.489 31.3223C6.38489 29.6548 6.38693 27.9955 7.02991 26.4077C8.00153 24.0137 9.68144 22.334 12.0819 21.3768C12.1656 21.3441 12.2493 21.3074 12.3615 21.2604L12.3656 21.2625ZM8.04031 30.3651H23.9781C23.9781 30.0447 23.9781 29.761 23.9781 29.4793C23.9638 27.8098 23.4249 26.322 22.3696 25.0341C21.1918 23.5973 19.6834 22.6809 17.832 22.4809C16.7114 22.3605 15.5683 22.3809 14.4415 22.434C13.3413 22.487 12.3126 22.8789 11.392 23.4871C8.9262 25.1158 7.88518 27.4465 8.04235 30.363L8.04031 30.3651ZM11.2226 15.9784C11.2164 18.6296 13.3352 20.7788 15.9622 20.7869C18.626 20.7951 20.7876 18.6868 20.7938 16.0744C20.7999 13.3987 18.7036 11.2639 16.097 11.2169C13.4087 11.17 11.2042 13.3864 11.2226 15.9784Z" fill="black" stroke="black" stroke-width="0.5" stroke-miterlimit="10"/>
<path d="M0.0510254 16.236C0.124509 11.601 1.63908 7.85181 4.68661 4.76182C6.97276 2.44126 9.73859 0.96974 12.9453 0.353374C15.9724 -0.226255 18.9363 0.0206993 21.8082 1.1473C25.3763 2.54739 28.1074 4.93326 29.9751 8.28041C31.0202 10.152 31.6448 12.1684 31.8612 14.3032C32.147 17.1259 31.753 19.8485 30.5712 22.4323C30.1772 23.2916 29.673 24.1039 29.1893 24.9182C28.9341 25.3488 28.432 25.4346 28.0482 25.1733C27.6726 24.9182 27.6094 24.4284 27.891 24.01C29.9261 20.9853 30.7712 17.6484 30.218 14.0522C29.373 8.54777 26.2928 4.721 21.1469 2.60454C18.677 1.59019 16.0847 1.38813 13.4679 1.87184C9.52631 2.60454 6.40938 4.65365 4.12323 7.95182C3.09242 9.43967 2.38617 11.0785 1.99425 12.844C1.43496 15.3686 1.53702 17.8688 2.32901 20.3383C2.7495 21.6507 3.34962 22.8773 4.12527 24.0161C4.41717 24.4447 4.33552 24.9325 3.93952 25.1937C3.56802 25.4366 3.08018 25.308 2.80053 24.8917C1.44721 22.8834 0.587863 20.6792 0.234734 18.2851C0.120426 17.5096 0.0938907 16.7218 0.0530666 16.234L0.0510254 16.236Z" fill="black" stroke="black" stroke-width="0.5" stroke-miterlimit="10"/>
<path d="M4.85206 15.9394C4.89697 12.9352 5.94003 10.3207 8.05472 8.18996C10.5225 5.70613 13.5415 4.61014 17.036 4.90403C19.5345 5.11425 21.7165 6.09595 23.5536 7.79197C25.5009 9.59005 26.6787 11.8126 27.0481 14.4475C27.3421 16.5354 27.0645 18.5457 26.2113 20.4744C26.0051 20.9438 25.5805 21.1234 25.1396 20.9377C24.7314 20.7663 24.5518 20.3091 24.7579 19.854C25.16 18.9723 25.3846 18.0416 25.5377 17.0946C25.6173 16.6027 25.5724 16.0905 25.5683 15.5884C25.5642 15.2067 25.6009 14.8067 25.507 14.4434C25.3131 13.6964 25.1049 12.9433 24.7947 12.2392C23.5311 9.36554 21.3675 7.47359 18.322 6.72456C15.0867 5.92859 12.1535 6.66129 9.63665 8.86347C7.84856 10.4289 6.80142 12.4249 6.51769 14.7883C6.42788 15.5435 6.39522 16.3231 6.47686 17.0783C6.57688 18.009 6.82795 18.9233 7.22191 19.7887C7.44644 20.2826 7.29743 20.7418 6.88102 20.9336C6.45849 21.1275 6.00126 20.9438 5.79918 20.4867C5.15825 19.0396 4.82757 17.5252 4.84594 15.9374L4.85206 15.9394Z" fill="black" stroke="black" stroke-width="0.5" stroke-miterlimit="10"/>
</g>
<defs>
<clipPath id="clip0_2823_896">
<rect width="32" height="32" fill="white"/>
</clipPath>
</defs>
</svg>
