<svg width="36" height="42" viewBox="0 0 36 42" fill="none" xmlns="http://www.w3.org/2000/svg">
<rect x="3" y="9" width="32.4559" height="32.4559" rx="16.228" fill="white" fill-opacity="0.27"/>
<g clip-path="url(#clip0_224_522)">
<path d="M22.9971 18.9886C22.9971 24.3202 23.0063 29.6528 22.9929 34.9843C22.9878 36.8778 21.8294 38 19.9497 38C14.2971 38 8.6455 38 2.99289 38C1.17189 38 0.00323644 36.8064 0.00426699 34.9843C0.00838923 26.9435 0.00426699 18.9027 0.00323644 10.8619C0.00323644 8.23854 -0.00294691 5.61625 0.00323644 2.99292C0.00735867 1.16155 1.18323 0 3.01865 0C8.67126 0 14.3228 0 19.9755 0C21.8263 0 22.994 1.17087 22.995 3.04364C22.9981 8.35863 22.996 13.6736 22.9971 18.9886ZM2.11485 30.6031H20.8525V7.39792H2.11485V30.6031ZM11.4898 36.1314C12.4596 36.1376 13.2676 35.3508 13.2923 34.3745C13.317 33.3921 12.5008 32.5494 11.5105 32.5359C10.552 32.5225 9.73274 33.3269 9.71728 34.3C9.70079 35.3042 10.4954 36.1252 11.4909 36.1314H11.4898Z" fill="white"/>
</g>
<defs>
<clipPath id="clip0_224_522">
<rect width="23" height="38" fill="white"/>
</clipPath>
</defs>
</svg>
