<svg width="130" height="130" viewBox="0 0 130 130" fill="none" xmlns="http://www.w3.org/2000/svg">
<path opacity="0.13" d="M65.3789 117.545C94.6384 117.545 118.358 93.8254 118.358 64.5659C118.358 35.3064 94.6384 11.5869 65.3789 11.5869C36.1195 11.5869 12.3999 35.3064 12.3999 64.5659C12.3999 93.8254 36.1195 117.545 65.3789 117.545Z" fill="#6C3BAA"/>
<path opacity="0.13" d="M64.5668 129.134C100.226 129.134 129.133 100.226 129.133 64.5668C129.133 28.9075 100.226 0 64.5668 0C28.9076 0 0 28.9075 0 64.5668C0 100.226 28.9076 129.134 64.5668 129.134Z" fill="#6C3BAA"/>
<path d="M65.3788 99.5871C85.0386 99.5871 100.976 83.6496 100.976 63.9898C100.976 44.33 85.0386 28.3926 65.3788 28.3926C45.719 28.3926 29.7815 44.33 29.7815 63.9898C29.7815 83.6496 45.719 99.5871 65.3788 99.5871Z" fill="#6C3BAA"/>
<path d="M51.6749 63.6056C50.8411 61.0186 50.2639 59.009 50.4135 56.9137C50.4563 56.2082 50.6487 55.4813 50.9052 54.8185C51.2687 53.7923 51.9742 53.0226 53.0218 52.6164C53.8556 52.2957 54.6894 51.9536 55.5446 51.7398C57.0412 51.355 57.8109 51.6543 58.495 53.0654C59.1578 54.4123 59.6709 55.8447 60.1413 57.2772C60.4834 58.3676 60.1413 59.4151 59.4571 60.3345C58.8585 61.1255 58.2385 61.8952 57.6399 62.7076C57.533 62.8359 57.5116 63.1352 57.5757 63.2849C59.842 67.5181 63.3054 70.2761 67.9448 71.5161C68.3724 71.623 68.6504 71.5802 68.9283 71.174C69.4628 70.4043 70.0614 69.6988 70.6387 68.9719C71.4297 67.9884 72.4559 67.4753 73.696 67.5822C75.1498 67.7105 76.6037 67.9243 78.0147 68.1809C79.2547 68.416 79.8961 69.2712 79.8747 70.5326C79.8747 71.4306 79.7893 72.3071 79.6824 73.2051C79.4686 74.9155 78.3781 75.9631 76.9029 76.6472C74.8932 77.5666 72.7553 77.5879 70.6387 77.4383C63.0275 76.8824 57.2123 73.2692 53.2357 66.7698C52.5088 65.5939 52.017 64.2897 51.6749 63.6056Z" fill="white"/>
<path d="M80.1739 57.7695C80.2167 57.9405 80.3236 58.1757 80.345 58.4323C80.4091 59.1164 79.9174 59.7578 79.2546 59.9075C78.5277 60.0785 77.8222 59.6937 77.5442 58.924C76.9456 57.2778 76.0049 55.8667 74.7221 54.6908C72.7338 52.8735 70.3607 51.9328 67.6668 51.8687C67.0896 51.8687 66.6192 51.6763 66.3199 51.1632C65.7426 50.1156 66.4268 48.9824 67.6454 48.9824C70.4034 49.0038 72.9261 49.8376 75.1924 51.3983C77.5014 52.9804 79.1263 55.097 80.1953 57.7695H80.1739Z" fill="white"/>
<path d="M73.8885 60.0137C74.1878 60.7833 74.0809 61.4247 73.5677 61.8523C73.076 62.2585 72.4133 62.3227 71.9002 61.9592C71.665 61.8096 71.4512 61.5744 71.3443 61.3178C70.6174 59.5647 69.3345 58.6026 67.4104 58.5385C66.6193 58.5171 66.0422 57.8329 66.0636 57.0633C66.0849 56.2508 66.705 55.6736 67.5388 55.6736C70.254 55.6308 72.905 57.4481 73.8885 60.035V60.0137Z" fill="white"/>
</svg>
