<svg width="111" height="107" viewBox="0 0 111 107" fill="none" xmlns="http://www.w3.org/2000/svg">
<g clip-path="url(#clip0_1645_750)">
<path d="M45.2932 61.6378C45.2708 60.5334 45.1376 59.6363 45.2424 58.7618C45.5624 55.9282 46.5192 53.3142 48.1918 50.9906C50.5868 47.6801 53.4972 44.889 56.9404 42.7269C59.0383 41.4096 61.2169 40.2481 63.7589 39.9941C67.3062 39.6422 69.0431 41.4767 68.425 45.0137C68.0542 47.1908 66.9969 49.042 65.6489 50.7316C60.813 56.8137 54.4471 60.2948 46.8657 61.6484C46.4719 61.7064 46.0655 61.6346 45.2855 61.6255L45.2932 61.6378ZM63.5125 80.1029C75.7967 81.3886 86.6461 77.6216 96.4023 70.3598C101.396 66.6391 104.575 61.5629 105.903 55.4294C105.705 55.4159 105.508 55.4024 105.302 55.3766C105.13 55.6226 104.957 55.8685 104.757 56.0975C104.702 56.3386 104.631 56.555 104.56 56.7714C102.882 61.2498 99.8939 64.7949 96.0843 67.4967C89.7715 71.9941 82.8491 75.274 75.1379 76.6402C69.885 77.5641 64.6398 77.7604 59.4557 76.1633C54.1232 74.5217 49.8982 71.4104 46.9349 66.6637C46.6792 66.2565 46.5222 65.7872 46.1824 65.0542C47.0253 64.8347 47.6937 64.6387 48.3607 64.4951C55.7779 62.9349 62.1456 59.5388 67.1628 53.7729C69.2585 51.3558 70.7434 48.6511 71.2835 45.4556C72.1502 40.3688 69.0302 36.7701 63.8751 37.2196C62.1809 37.3715 60.4411 37.8617 58.8856 38.5631C53.3471 41.0601 48.8711 44.9203 45.4509 49.9414C43.2227 53.2161 41.8276 56.7763 42.1327 60.852C42.1706 61.2412 42.0587 61.6384 42.0286 62.0015C33.0538 63.3008 18.5195 56.3217 14.851 49.7121L21.8265 46.7086L7.89828 40.777L7.38297 55.7951L7.36691 56.2354L12.6428 50.7717C20.5652 60.3196 30.4315 65.0162 42.7412 65.219C43.7859 66.9376 44.6547 68.7322 45.8581 70.265C50.3557 75.9754 56.2433 79.3505 63.5001 80.1107L63.5125 80.1029Z" fill="white"/>
</g>
<defs>
<clipPath id="clip0_1645_750">
<rect width="83.8774" height="72.3071" fill="white" transform="translate(0.55542 45.3877) rotate(-32.1256)"/>
</clipPath>
</defs>
</svg>
